<svg width="300" height="300" viewBox="0 0 300 300" fill="none" xmlns="http://www.w3.org/2000/svg">
<rect width="300" height="300" fill="#F7F7F7"/>
<path d="M179.49 210.247L205.241 270.004" stroke="#10B09D" stroke-width="15" stroke-linecap="round"/>
<path d="M179.686 214.254C185.838 216.547 199.465 218.645 206.027 218.41C212.589 218.174 219.04 216.648 225.012 213.919C230.984 211.19 236.361 207.312 240.834 202.505C245.307 197.698 248.79 192.058 251.083 185.905C253.376 179.752 254.435 173.208 254.199 166.647C253.964 160.085 252.438 153.634 249.709 147.661C246.98 141.689 243.101 136.313 238.295 131.84C233.488 127.367 223.035 116.754 216.882 114.461L149.884 148.185L179.686 214.254Z" fill="#10B09D"/>
<path d="M120.607 80.7099C114.454 78.4167 100.827 76.3184 94.2652 76.5542C87.7034 76.7899 81.2522 78.3159 75.2801 81.0448C69.3079 83.7737 63.9318 87.6523 59.4586 92.4589C54.9853 97.2656 51.5027 102.906 49.2094 109.059C46.9161 115.211 45.8571 121.755 46.0929 128.317C46.3287 134.879 47.8546 141.33 50.5835 147.302C53.3125 153.275 57.191 158.651 61.9977 163.124C66.8043 167.597 77.2578 178.21 83.4104 180.503L150.408 146.779L120.607 80.7099Z" fill="#10B09D"/>
<path d="M216.192 120.607C218.485 114.454 220.583 100.827 220.348 94.2652C220.112 87.7034 218.586 81.2522 215.857 75.2801C213.128 69.3079 209.25 63.9318 204.443 59.4586C199.636 54.9853 193.996 51.5027 187.843 49.2094C181.69 46.9161 175.146 45.8571 168.585 46.0929C162.023 46.3287 155.572 47.8546 149.599 50.5835C143.627 53.3125 138.251 57.191 133.778 61.9977C129.305 66.8043 118.692 77.2578 116.399 83.4104L150.123 150.408L216.192 120.607Z" fill="#10B09D"/>
<path d="M82.5202 174.302C80.227 180.454 78.1287 194.082 78.3645 200.643C78.6002 207.205 80.1262 213.656 82.8551 219.629C85.584 225.601 89.4626 230.977 94.2692 235.45C99.0759 239.923 104.717 243.406 110.869 245.699C117.022 247.993 123.566 249.052 130.128 248.816C136.689 248.58 143.141 247.054 149.113 244.325C155.085 241.596 160.461 237.718 164.934 232.911C169.408 228.104 180.02 217.651 182.313 211.498L148.589 144.501L82.5202 174.302Z" fill="#10B09D"/>
</svg>
